<?xml version="1.0" standalone="no"?>
<!DOCTYPE svg PUBLIC "-//W3C//DTD SVG 20010904//EN"
 "http://www.w3.org/TR/2001/REC-SVG-20010904/DTD/svg10.dtd">
<svg version="1.0" xmlns="http://www.w3.org/2000/svg"
 width="2000.000000pt" height="2000.000000pt" viewBox="0 0 2000.000000 2000.000000"
 preserveAspectRatio="xMidYMid meet">
<metadata>
Created by potrace 1.14, written by Peter Selinger 2001-2017
</metadata>
<g transform="translate(0.000000,2000.000000) scale(0.100000,-0.100000)"
fill="#000000" stroke="none">
<path d="M10559 16575 c-2 -1 -26 -6 -54 -9 -118 -16 -289 -96 -419 -196 -36
-28 -181 -175 -206 -209 -14 -18 -33 -43 -44 -55 -20 -23 -128 -182 -140 -206
-4 -8 -18 -33 -31 -55 -42 -70 -233 -460 -249 -507 -3 -10 -13 -18 -23 -19
-10 0 -27 -2 -38 -3 -11 -2 -51 -6 -88 -10 -37 -4 -76 -9 -86 -11 -10 -2 -36
-6 -57 -9 -22 -4 -46 -8 -54 -11 -8 -2 -32 -6 -54 -10 -21 -3 -41 -7 -45 -9
-3 -3 -26 -7 -51 -11 -24 -4 -52 -11 -61 -15 -9 -5 -27 -11 -40 -14 -33 -6
-229 -73 -236 -80 -4 -3 -13 -6 -22 -6 -35 0 -378 -172 -473 -238 -26 -18 -51
-32 -55 -32 -5 0 -18 -8 -29 -18 -11 -10 -33 -27 -49 -38 -30 -18 -100 -70
-121 -89 -6 -5 -26 -21 -44 -35 -52 -40 -137 -117 -248 -225 -114 -110 -119
-115 -147 -132 -44 -26 -208 -102 -290 -133 -11 -5 -41 -17 -67 -29 -26 -12
-50 -21 -54 -21 -3 0 -20 -11 -38 -25 -18 -14 -36 -25 -39 -25 -11 0 -50 -33
-112 -96 -76 -76 -87 -90 -163 -209 -15 -24 -100 -196 -124 -251 -19 -44 -36
-86 -66 -159 -32 -79 -82 -234 -88 -273 -3 -19 -10 -46 -15 -59 -5 -13 -7 -23
-4 -23 2 0 -1 -15 -6 -32 -30 -105 -32 -439 -3 -603 13 -78 36 -183 45 -211 5
-17 11 -40 13 -50 7 -35 68 -208 92 -262 13 -29 24 -57 24 -62 0 -5 9 -26 19
-47 11 -21 31 -63 45 -93 15 -30 37 -73 51 -95 13 -22 33 -58 44 -80 l19 -40
-167 -165 c-173 -172 -249 -253 -315 -334 -21 -26 -46 -55 -56 -64 -9 -10 -32
-37 -50 -62 -19 -25 -39 -50 -45 -56 -5 -6 -17 -22 -25 -34 -8 -12 -27 -36
-42 -54 -15 -17 -28 -34 -28 -38 0 -4 -6 -13 -13 -20 -18 -18 -143 -208 -167
-253 -5 -11 -24 -42 -40 -70 -48 -79 -123 -239 -175 -370 -15 -38 -31 -79 -36
-90 -7 -17 -87 -259 -95 -290 -2 -5 -8 -26 -13 -45 -20 -71 -58 -226 -66 -265
-5 -22 -9 -44 -10 -50 -2 -5 -5 -23 -8 -40 -3 -16 -12 -70 -21 -120 -8 -49
-18 -115 -21 -145 -4 -30 -8 -68 -10 -85 -4 -28 -11 -106 -20 -205 -2 -25 -7
-144 -11 -265 -7 -220 -7 -220 -33 -245 -30 -29 -93 -101 -133 -151 -14 -19
-36 -45 -47 -59 -11 -14 -24 -30 -29 -35 -5 -6 -17 -24 -28 -40 -10 -17 -24
-36 -31 -43 -7 -7 -13 -17 -13 -21 0 -4 -8 -16 -18 -27 -20 -22 -75 -102 -85
-124 -4 -8 -17 -31 -29 -50 -20 -32 -64 -113 -101 -185 -33 -64 -67 -144 -67
-158 0 -7 -3 -16 -6 -20 -18 -17 -80 -228 -90 -302 -3 -27 -8 -53 -10 -57 -25
-40 -24 -560 1 -709 2 -13 6 -41 9 -61 15 -96 19 -118 37 -193 11 -44 21 -84
23 -90 1 -5 6 -23 11 -40 12 -48 65 -208 77 -235 6 -14 16 -38 23 -55 33 -79
58 -133 76 -165 11 -19 29 -53 40 -75 30 -60 92 -158 113 -181 43 -47 80 -99
78 -108 -13 -39 -6 -249 9 -316 10 -41 18 -76 18 -78 16 -94 121 -280 207
-366 58 -58 113 -103 173 -141 9 -6 38 -25 65 -43 28 -18 54 -32 58 -32 5 0
39 -14 76 -31 37 -17 76 -35 87 -39 11 -4 32 -12 46 -18 84 -33 259 -86 329
-98 14 -3 41 -9 60 -14 34 -8 54 -12 162 -27 65 -10 415 -10 483 -1 164 22
350 77 465 137 9 5 20 3 26 -3 42 -44 166 -146 193 -159 9 -4 34 -19 56 -32
35 -23 79 -45 150 -75 27 -11 112 -40 155 -52 54 -14 113 -29 135 -34 11 -2
31 -6 45 -9 14 -3 45 -8 70 -11 25 -3 54 -8 65 -10 37 -7 250 -19 325 -18 80
1 371 12 480 19 36 2 115 7 175 10 112 6 198 11 318 20 37 3 99 7 137 10 182
13 299 22 390 30 30 2 89 7 130 10 108 8 190 15 230 20 19 2 64 6 100 10 36 3
81 8 100 10 19 2 64 6 100 10 68 6 125 12 175 19 17 2 59 7 95 11 36 4 72 9
81 10 9 2 40 6 69 10 29 4 62 9 74 11 11 2 36 6 56 9 20 3 47 8 60 10 14 3 36
7 50 10 40 8 61 12 130 30 36 8 74 18 85 20 40 9 120 43 230 98 122 60 155 81
228 141 16 13 107 49 208 82 258 84 297 98 305 107 4 4 14 7 23 7 9 1 34 9 56
20 22 11 48 19 57 20 9 0 19 4 23 9 3 5 20 13 37 17 18 3 39 10 48 15 14 7 61
28 115 49 22 9 86 36 125 52 14 6 34 14 45 18 42 17 285 125 370 165 236 112
462 227 610 310 28 15 66 36 85 47 19 10 49 27 65 38 17 11 39 24 50 30 11 6
34 19 50 30 17 11 39 24 50 30 27 14 52 29 106 67 26 18 50 33 54 33 3 0 21
11 39 25 18 14 36 25 41 25 4 0 29 16 55 35 26 19 53 35 59 35 6 0 11 5 11 10
0 6 5 10 10 10 6 0 34 16 63 36 28 20 61 40 72 45 11 5 34 18 50 29 17 11 39
24 50 30 11 6 34 19 50 30 39 25 89 51 260 137 127 63 174 85 243 114 12 5 32
14 45 19 22 10 180 62 245 81 41 12 111 31 160 44 9 2 44 12 77 21 33 9 69 18
80 20 18 3 47 13 100 34 46 18 207 103 228 120 185 152 234 212 327 399 65
132 93 257 94 426 1 152 -4 197 -37 310 -29 96 -58 163 -113 256 -44 75 -198
236 -273 287 -94 62 -202 122 -222 122 -6 0 -25 6 -42 14 -34 15 -101 33 -187
51 -61 13 -133 18 -235 19 -106 1 -297 -10 -341 -18 -12 -3 -39 -7 -60 -10
-22 -4 -46 -8 -54 -11 -8 -2 -31 -6 -50 -9 -19 -3 -46 -8 -60 -11 -164 -36
-261 -63 -365 -100 -55 -20 -111 -40 -125 -45 -78 -25 -311 -127 -425 -186
-71 -37 -209 -111 -255 -138 -25 -14 -58 -33 -75 -41 -16 -9 -48 -27 -70 -40
-22 -14 -49 -30 -60 -35 -22 -11 -45 -25 -90 -55 -38 -25 -66 -42 -85 -51 -8
-4 -28 -17 -45 -29 -16 -12 -37 -25 -45 -28 -8 -4 -28 -16 -45 -27 -16 -11
-43 -26 -60 -34 -16 -9 -66 -36 -110 -61 -82 -46 -227 -117 -230 -113 -1 2 2
73 7 158 4 85 6 191 3 235 -3 44 -7 126 -10 182 -4 56 -8 114 -10 130 -1 15
-6 53 -9 84 -4 31 -8 66 -10 76 -3 11 -7 44 -11 74 -8 63 -60 318 -75 369 -6
19 -13 44 -16 55 -9 35 -10 39 -29 100 -45 151 -58 192 -70 220 -7 17 -20 50
-30 75 -10 25 -24 59 -31 77 -8 17 -14 34 -14 37 0 6 -40 97 -75 171 -13 28
-37 79 -54 115 -17 36 -51 101 -75 145 -25 44 -53 94 -61 110 -17 33 -30 56
-60 100 -27 40 -42 66 -54 91 -5 11 -16 27 -24 35 -7 8 -26 34 -42 58 -15 25
-36 54 -46 65 -11 11 -19 23 -19 26 0 4 -9 18 -20 31 -26 32 -28 34 -82 104
-25 33 -59 75 -75 92 -16 18 -43 48 -59 65 -16 18 -47 52 -68 76 l-39 42 48
73 c27 39 52 74 57 75 4 2 8 10 8 18 0 8 5 14 10 14 6 0 10 5 10 11 0 6 11 25
25 43 14 18 25 37 25 41 0 4 10 22 23 39 13 17 27 38 30 46 4 8 16 29 27 45
11 17 24 39 30 50 6 11 19 34 30 50 11 17 27 44 35 60 9 17 41 75 71 130 30
55 66 125 80 155 13 30 36 78 49 105 33 67 54 118 110 260 25 66 51 129 56
140 10 22 96 289 110 345 5 19 12 42 14 50 20 69 56 213 61 245 3 22 7 42 9
46 2 3 7 21 10 40 3 19 10 50 15 69 5 19 11 55 14 80 3 25 8 54 10 66 2 12 7
45 11 74 4 29 8 61 10 71 2 10 7 49 11 86 3 37 8 79 10 93 26 202 26 954 0
1175 -2 17 -7 57 -11 90 -3 33 -8 71 -10 85 -2 14 -6 50 -9 80 -6 52 -39 247
-51 300 -3 14 -10 45 -15 70 -5 25 -12 54 -15 65 -2 11 -13 54 -24 95 -10 41
-24 87 -30 103 -6 15 -9 27 -6 27 2 0 -11 42 -29 93 -19 50 -37 101 -41 112
-24 69 -131 287 -157 319 -97 124 -234 210 -388 242 -80 17 -268 8 -364 -17
-21 -6 -40 -8 -43 -6 -2 3 -44 83 -92 178 -116 228 -171 331 -211 394 -11 17
-24 39 -29 51 -5 11 -15 27 -23 35 -8 8 -28 35 -46 62 -44 66 -48 71 -127 151
-39 40 -91 82 -115 95 -25 12 -52 26 -60 31 -34 20 -129 55 -180 66 -19 4 -42
9 -50 11 -20 6 -207 13 -211 8z m140 -587 c76 -17 129 -73 222 -235 73 -125
340 -660 474 -946 39 -85 45 -87 105 -48 25 17 224 115 268 132 12 5 32 13 45
18 119 47 218 49 234 4 3 -10 21 -50 39 -90 19 -40 34 -78 34 -86 0 -7 4 -17
9 -23 8 -9 40 -102 47 -139 2 -11 8 -31 13 -45 19 -48 40 -141 86 -380 6 -35
16 -100 30 -205 3 -28 12 -108 20 -200 24 -259 24 -801 0 -1010 -2 -16 -6 -59
-9 -95 -4 -36 -8 -76 -11 -90 -2 -14 -6 -43 -10 -65 -10 -72 -25 -159 -30
-185 -3 -14 -10 -43 -14 -65 -5 -22 -14 -62 -20 -90 -10 -46 -37 -156 -45
-180 -1 -5 -6 -23 -10 -40 -5 -16 -16 -54 -27 -82 -10 -29 -21 -67 -24 -85 -3
-18 -17 -59 -30 -93 -13 -33 -27 -72 -31 -88 -3 -15 -10 -30 -15 -33 -5 -3 -9
-12 -9 -21 0 -9 -10 -37 -21 -62 -12 -25 -28 -59 -35 -76 -43 -99 -64 -144
-126 -270 -87 -176 -167 -324 -191 -354 -12 -14 -27 -39 -52 -88 -9 -18 -23
-37 -31 -44 -8 -6 -14 -16 -14 -20 0 -10 -178 -281 -190 -289 -4 -3 -25 -32
-46 -65 -20 -33 -45 -68 -54 -78 -9 -9 -23 -30 -30 -45 -8 -15 -34 -55 -58
-90 -40 -58 -43 -66 -32 -92 6 -16 62 -75 123 -132 157 -144 301 -293 357
-367 14 -19 32 -42 41 -52 8 -10 24 -30 35 -44 17 -24 41 -54 62 -80 16 -20
129 -190 135 -205 4 -8 18 -33 31 -55 34 -54 47 -78 93 -165 22 -41 44 -84 51
-95 6 -11 23 -47 37 -80 15 -33 36 -80 47 -105 12 -25 24 -54 28 -65 8 -20 34
-90 51 -132 5 -13 14 -33 19 -45 17 -39 59 -168 54 -168 -2 0 3 -17 11 -37 15
-41 60 -216 69 -273 3 -19 8 -46 11 -60 3 -14 7 -36 10 -50 3 -14 7 -35 9 -48
3 -13 8 -51 11 -85 3 -34 8 -75 10 -92 24 -180 24 -622 0 -785 -3 -19 -7 -60
-11 -90 -8 -84 -13 -123 -18 -150 -5 -25 -10 -55 -22 -145 -3 -27 -8 -59 -10
-70 -11 -49 -16 -147 -10 -181 l7 -37 87 6 c48 3 98 9 112 12 14 3 38 8 54 11
16 2 32 7 35 9 4 2 25 6 47 9 22 4 84 22 137 41 53 19 99 35 102 35 9 1 40 12
72 26 17 8 36 14 43 14 7 0 24 6 38 14 15 8 45 22 67 31 102 43 490 244 570
295 17 11 39 24 50 29 11 5 37 21 58 35 21 14 40 26 43 26 3 0 20 11 38 25 18
14 36 25 39 25 3 0 25 12 49 28 24 15 52 33 63 40 11 7 34 19 50 27 17 9 46
25 65 37 74 45 322 173 400 206 102 44 115 49 145 62 17 7 38 16 47 21 10 5
23 9 30 9 7 0 25 6 39 14 25 13 174 65 202 70 7 2 30 8 52 14 22 6 54 14 70
16 17 3 41 8 55 11 14 3 39 7 55 10 17 3 41 8 55 10 14 3 36 8 50 10 43 8 231
20 305 19 129 -2 265 -45 344 -111 52 -42 101 -96 101 -110 0 -3 6 -14 13 -22
7 -9 24 -49 36 -89 44 -137 12 -298 -82 -419 -23 -29 -45 -53 -49 -53 -3 0
-13 -6 -20 -13 -15 -16 -100 -60 -143 -76 -16 -5 -104 -29 -195 -52 -91 -23
-172 -45 -181 -50 -9 -4 -31 -11 -49 -14 -18 -3 -51 -14 -74 -24 -23 -10 -66
-26 -96 -36 -30 -10 -68 -23 -85 -30 -107 -47 -144 -65 -270 -128 -186 -93
-325 -167 -354 -190 -14 -12 -41 -28 -76 -47 -11 -6 -33 -19 -50 -30 -16 -11
-37 -23 -45 -26 -8 -4 -36 -22 -61 -41 -26 -18 -50 -33 -54 -33 -4 0 -29 -16
-55 -35 -26 -19 -51 -35 -55 -35 -5 0 -23 -11 -41 -25 -18 -14 -36 -25 -40
-25 -4 0 -22 -11 -40 -25 -18 -14 -37 -25 -42 -25 -5 0 -15 -6 -21 -14 -7 -8
-26 -22 -44 -31 -18 -9 -50 -27 -72 -41 -22 -13 -49 -28 -60 -34 -11 -5 -38
-21 -60 -34 -22 -14 -60 -36 -85 -49 -25 -13 -67 -36 -95 -52 -114 -63 -483
-245 -642 -316 -54 -24 -132 -58 -158 -69 -11 -5 -50 -23 -87 -39 -37 -17 -72
-31 -78 -31 -6 0 -18 -4 -28 -9 -9 -5 -30 -14 -47 -21 -16 -7 -37 -16 -45 -20
-9 -4 -30 -11 -48 -14 -17 -4 -34 -12 -37 -17 -4 -5 -14 -9 -23 -9 -9 0 -29
-6 -44 -14 -15 -8 -40 -17 -57 -21 -17 -4 -33 -11 -36 -16 -4 -5 -13 -9 -22
-9 -8 0 -29 -6 -46 -14 -18 -8 -63 -24 -102 -36 -38 -13 -74 -26 -80 -30 -10
-7 -122 -44 -235 -76 -30 -9 -67 -20 -81 -24 -14 -4 -50 -32 -80 -61 -30 -30
-73 -63 -95 -75 -21 -11 -48 -26 -59 -32 -38 -21 -125 -54 -180 -68 -16 -4
-32 -8 -35 -9 -3 -1 -30 -7 -60 -13 -57 -12 -84 -17 -160 -27 -25 -3 -56 -8
-70 -10 -14 -2 -50 -7 -80 -10 -30 -3 -66 -8 -80 -10 -52 -8 -247 -29 -365
-40 -33 -3 -81 -8 -107 -10 -119 -12 -172 -17 -328 -30 -33 -3 -87 -7 -120
-10 -33 -3 -86 -7 -117 -10 -59 -5 -133 -10 -283 -20 -47 -3 -110 -8 -140 -10
-30 -2 -104 -7 -165 -10 -60 -3 -137 -8 -170 -10 -321 -22 -682 -27 -806 -12
-211 25 -406 98 -498 185 -64 62 -93 111 -126 213 -59 179 -36 378 59 519 56
83 192 210 266 248 14 7 34 20 45 28 17 13 18 16 5 24 -98 61 -221 171 -285
255 -42 55 -64 77 -74 71 -19 -12 -114 -341 -157 -541 -2 -11 -8 -31 -13 -45
-5 -14 -19 -59 -32 -100 -12 -41 -30 -91 -40 -110 -10 -19 -28 -55 -39 -80
-37 -82 -62 -119 -134 -192 -89 -91 -104 -102 -191 -143 -91 -43 -181 -73
-247 -82 -68 -10 -360 -10 -418 0 -94 15 -107 18 -170 33 -63 15 -194 56 -235
73 -11 5 -46 21 -78 35 -32 14 -60 26 -64 26 -3 0 -30 16 -59 35 -63 42 -125
123 -141 185 -13 52 -10 146 7 210 19 75 123 272 167 318 21 22 16 35 -9 26
-13 -5 -59 -8 -103 -8 -69 1 -87 5 -130 29 -27 16 -68 48 -90 72 -54 58 -60
65 -68 83 -4 8 -16 29 -27 45 -22 33 -75 145 -110 230 -4 11 -15 36 -23 55 -9
20 -19 51 -22 70 -3 18 -8 37 -11 41 -11 19 -52 198 -68 299 -20 127 -28 446
-14 547 10 67 35 175 55 238 16 51 119 266 153 320 11 17 26 44 35 60 8 17 28
46 45 65 16 19 30 38 30 41 0 3 8 15 18 27 9 11 24 30 32 42 8 12 22 30 30 40
8 10 33 39 55 66 22 27 96 107 165 177 l125 128 -5 67 c-12 183 -4 585 15 737
2 17 6 53 10 80 6 59 11 87 31 205 5 24 26 129 45 215 5 22 14 58 19 80 6 22
16 58 21 80 21 85 74 238 100 287 5 10 9 23 9 29 0 6 7 27 16 47 108 240 146
314 193 381 12 16 21 34 21 40 0 6 5 11 10 11 6 0 10 5 10 11 0 9 46 82 72
114 5 6 17 21 28 34 11 13 20 27 20 30 0 3 13 20 28 37 15 17 38 46 52 64 14
18 32 41 40 50 8 10 33 40 55 66 144 173 405 429 595 584 22 18 50 42 63 53
13 12 36 31 51 42 15 11 36 27 46 35 51 42 75 60 82 60 14 0 9 19 -9 38 -10
10 -27 31 -38 46 -11 16 -24 33 -30 40 -5 6 -27 34 -47 61 -21 28 -42 55 -48
62 -5 7 -10 15 -10 19 0 4 -11 21 -24 38 -12 17 -31 45 -40 61 -9 17 -27 48
-41 70 -25 41 -131 253 -146 293 -18 44 -31 77 -40 94 -8 16 -43 133 -54 183
-10 44 -17 75 -16 80 0 2 -4 19 -9 36 -23 78 -31 289 -16 394 14 102 18 120
27 138 5 9 7 17 5 17 -5 0 17 68 33 105 5 11 23 56 41 100 17 44 37 94 45 110
8 17 23 50 34 75 48 106 146 240 177 240 3 0 22 7 42 16 21 9 47 20 60 25 12
5 32 13 45 18 75 30 161 71 257 123 75 40 168 113 270 213 63 62 127 123 141
136 63 56 86 76 124 103 22 16 44 33 50 38 33 29 131 98 139 98 5 0 17 6 25
14 20 18 116 73 161 92 19 8 62 28 95 43 95 46 132 61 145 61 7 0 26 6 43 14
18 7 52 19 77 26 25 7 63 19 86 26 22 7 60 15 84 19 25 4 48 8 51 11 4 2 24 6
44 10 21 3 47 8 59 10 60 13 181 19 359 19 l197 0 11 33 c6 19 17 46 25 60 8
15 14 35 14 44 0 9 4 19 9 23 5 3 13 20 17 37 3 18 10 39 15 48 8 15 33 74 49
115 19 50 33 81 114 245 91 183 108 216 141 265 12 17 27 42 34 56 7 14 22 38
34 52 12 14 31 38 42 54 30 43 141 150 186 180 32 21 106 49 141 52 3 1 29 -4
57 -11z"/>
</g>
</svg>
